<?xml version="1.0" standalone="no"?>
<!DOCTYPE svg PUBLIC "-//W3C//DTD SVG 20010904//EN"
 "http://www.w3.org/TR/2001/REC-SVG-20010904/DTD/svg10.dtd">
<svg version="1.0" xmlns="http://www.w3.org/2000/svg"
 width="500.000000pt" height="500.000000pt" viewBox="0 0 500.000000 500.000000"
 preserveAspectRatio="xMidYMid meet">

<g transform="translate(0.000000,500.000000) scale(0.100000,-0.100000)"
fill="#000000" stroke="none">
<path d="M890 4525 c-43 -19 -96 -69 -118 -110 -10 -19 -16 -54 -16 -95 l1
-65 -46 -30 c-63 -42 -91 -94 -91 -173 0 -44 6 -75 20 -103 l21 -39 -30 -38
c-35 -44 -54 -110 -46 -156 4 -18 19 -53 35 -76 l28 -43 -19 -36 c-34 -64 -23
-151 26 -208 34 -40 80 -68 128 -78 l27 -5 0 -320 0 -320 -38 -43 c-123 -134
-211 -286 -232 -396 -4 -25 -11 -305 -15 -621 -8 -644 -10 -617 63 -693 44
-46 122 -72 182 -62 36 6 41 4 49 -17 28 -73 129 -134 207 -125 24 2 62 14 86
25 41 21 43 21 63 4 69 -62 136 -75 213 -42 28 12 56 28 63 36 9 11 17 10 47
-6 49 -27 123 -26 180 1 62 30 98 84 112 169 l12 70 315 0 315 0 57 -48 c139
-119 257 -191 356 -215 49 -13 171 -16 660 -19 579 -3 601 -2 630 16 86 56
115 106 115 200 0 64 0 65 38 86 93 53 128 172 82 279 l-23 52 25 27 c39 41
49 69 49 127 0 53 -16 99 -47 129 -14 15 -14 20 5 59 28 57 27 112 -4 173 -27
54 -85 99 -142 110 l-33 6 0 320 0 320 64 77 c174 209 226 341 213 535 -3 45
-2 286 2 536 9 532 8 540 -65 607 -52 48 -108 68 -171 59 -41 -5 -43 -4 -62
32 -52 102 -180 139 -290 85 -39 -20 -41 -20 -57 -2 -26 29 -97 59 -137 59
-41 0 -101 -22 -128 -46 -15 -13 -23 -13 -75 5 -91 30 -172 8 -233 -66 -23
-28 -33 -54 -43 -110 l-12 -73 -314 0 -315 0 -65 55 c-86 74 -176 138 -238
169 -106 53 -119 54 -756 61 -528 5 -597 4 -628 -10z m1238 -176 c116 -31 185
-71 284 -167 l90 -87 349 -3 349 -3 0 -119 0 -119 -62 1 c-82 1 -138 -23 -188
-80 -54 -60 -64 -104 -51 -205 6 -44 11 -84 11 -89 0 -4 -81 -8 -181 -8 -108
0 -188 -4 -200 -11 -11 -5 -54 -46 -96 -89 -108 -114 -229 -185 -358 -209 -27
-6 -113 -15 -190 -21 -77 -5 -195 -15 -262 -21 -139 -13 -179 -5 -189 38 -14
54 35 93 118 93 14 0 40 12 57 26 40 33 42 80 6 114 l-24 23 -393 5 c-430 5
-428 5 -428 63 0 19 8 34 25 45 23 15 59 16 364 9 l340 -7 25 25 c36 36 36 88
0 116 -26 20 -38 21 -377 21 -312 0 -352 2 -369 17 -22 20 -23 61 -1 85 14 16
34 18 182 18 91 0 251 3 356 7 179 6 190 7 212 29 30 30 31 84 2 110 -20 18
-45 19 -371 24 l-350 5 -19 24 c-24 29 -24 43 -1 71 l18 23 350 -2 c325 -2
352 -1 372 16 35 29 39 74 9 109 l-25 29 -280 5 c-216 4 -283 8 -295 19 -23
18 -22 77 1 91 12 8 176 9 567 5 502 -6 556 -8 623 -26z m1611 -5 c20 -26 21
-38 21 -360 0 -188 4 -344 10 -358 9 -25 56 -56 85 -56 9 0 26 10 39 23 23 23
23 25 31 373 8 381 8 384 66 384 58 0 59 -9 59 -397 l0 -352 22 -15 c34 -24
81 -20 108 8 22 25 23 30 27 298 6 294 10 318 58 318 27 0 55 -24 56 -48 5
-114 -5 -1053 -12 -1101 -22 -144 -77 -247 -189 -358 l-75 -75 -3 -349 -3
-349 -152 0 -152 0 -1 68 c0 71 -14 106 -60 161 -45 54 -95 73 -180 69 l-74
-3 0 167 c0 179 -6 210 -48 246 -95 82 -137 129 -185 208 -76 123 -91 198
-118 612 l-13 193 26 26 c24 24 29 25 57 13 31 -13 44 -38 57 -115 3 -22 12
-50 20 -61 27 -44 113 -35 133 14 6 17 11 172 13 410 l3 384 24 19 c30 24 46
24 72 -2 20 -20 20 -29 18 -364 -2 -305 0 -347 15 -369 35 -54 106 -42 133 22
13 32 14 77 8 348 -4 171 -4 325 -1 341 12 53 72 68 105 27z m-815 -1076 c3
-24 8 -85 10 -136 7 -117 27 -195 76 -297 45 -95 107 -181 184 -253 l56 -53 0
-159 0 -159 -52 -5 c-29 -3 -100 -8 -158 -11 -58 -4 -134 -13 -169 -21 -137
-31 -307 -133 -415 -251 l-49 -53 -157 0 -158 0 -6 53 c-4 28 -11 99 -16 157
-11 127 -21 162 -70 262 -52 105 -91 160 -177 248 l-73 75 0 151 0 152 43 6
c23 3 92 8 152 12 61 3 141 12 178 20 135 28 306 127 422 244 l59 60 158 0
157 0 5 -42z m-1779 -18 l130 0 1 -68 c0 -77 22 -128 76 -178 49 -46 88 -57
168 -52 l70 5 0 -174 c0 -199 2 -206 78 -268 66 -54 145 -155 186 -240 44 -89
59 -179 82 -492 16 -227 17 -243 1 -267 -12 -18 -26 -26 -45 -26 -44 0 -61 20
-73 85 -14 77 -33 113 -64 121 -27 7 -80 -11 -93 -30 -4 -6 -9 -186 -12 -401
-3 -214 -9 -397 -13 -406 -5 -9 -19 -22 -32 -29 -20 -11 -28 -10 -50 4 l-25
16 0 356 0 355 -25 24 c-25 26 -63 32 -95 15 -38 -20 -43 -67 -39 -405 5 -367
3 -375 -61 -375 -28 0 -39 5 -48 22 -7 15 -12 140 -14 371 l-3 349 -28 24
c-34 29 -76 31 -103 5 -19 -17 -21 -35 -27 -267 -4 -137 -7 -295 -7 -351 0
-90 -3 -106 -20 -123 -11 -11 -29 -20 -40 -20 -11 0 -29 9 -40 20 -19 19 -20
33 -20 370 0 346 0 349 -22 370 -23 21 -68 26 -98 10 -34 -18 -40 -65 -40
-331 0 -246 -1 -260 -20 -279 -21 -21 -47 -25 -66 -12 -32 21 -34 49 -28 574
6 558 11 626 57 728 30 69 107 171 159 213 69 55 68 48 68 428 l0 341 23 -6
c12 -3 81 -6 152 -6z m2399 -1190 c33 -12 43 -52 22 -84 -11 -18 -31 -27 -73
-36 -81 -15 -100 -25 -118 -60 -14 -27 -14 -33 0 -60 8 -16 23 -33 33 -38 9
-5 192 -12 407 -16 339 -6 391 -9 407 -23 26 -23 22 -58 -8 -82 -26 -21 -33
-21 -363 -15 -336 7 -336 7 -363 -15 -36 -29 -39 -88 -7 -117 20 -18 43 -19
377 -22 312 -2 358 -5 374 -19 23 -20 23 -61 1 -85 -15 -17 -37 -18 -277 -18
-344 0 -449 -7 -476 -32 -28 -26 -27 -88 1 -114 20 -18 45 -19 371 -24 l351
-5 21 -28 c19 -26 19 -30 5 -55 l-15 -27 -361 -3 -362 -2 -20 -26 c-36 -45
-20 -105 32 -124 18 -6 133 -10 286 -10 289 0 305 -3 299 -63 -6 -58 2 -57
-619 -48 l-564 9 -67 24 c-102 38 -175 86 -255 168 l-73 75 -350 3 -350 3 0
119 0 120 63 0 c81 0 154 34 197 93 43 59 54 106 41 182 -20 114 -38 103 177
107 l189 3 99 100 c77 78 116 109 179 142 108 56 166 69 400 87 110 9 216 17
235 19 75 8 130 7 154 -3z"/>
</g>
</svg>
