<?xml version="1.0" standalone="no"?>
<!DOCTYPE svg PUBLIC "-//W3C//DTD SVG 20010904//EN"
 "http://www.w3.org/TR/2001/REC-SVG-20010904/DTD/svg10.dtd">
<svg version="1.0" xmlns="http://www.w3.org/2000/svg"
 width="500.000000pt" height="500.000000pt" viewBox="0 0 500.000000 500.000000"
 preserveAspectRatio="xMidYMid meet">

<g transform="translate(0.000000,500.000000) scale(0.100000,-0.100000)"
fill="#000000" stroke="none">
<path d="M2460 4899 c-220 -31 -451 -121 -625 -244 -100 -71 -261 -236 -326
-335 -108 -162 -170 -307 -211 -490 -20 -85 -22 -135 -27 -485 l-6 -390 -150
-5 c-166 -6 -195 -14 -237 -72 l-23 -33 0 -1325 0 -1325 24 -33 c14 -17 43
-41 66 -52 41 -20 63 -20 1677 -20 1389 0 1641 2 1669 14 45 19 87 64 99 107
14 46 13 2571 0 2619 -11 41 -61 94 -103 109 -16 6 -91 11 -168 11 l-139 0 0
293 c0 416 -15 556 -78 742 -110 327 -339 598 -643 763 -236 127 -546 185
-799 151z m306 -344 c291 -47 537 -202 692 -435 77 -117 104 -175 144 -315 18
-63 21 -107 25 -463 l5 -392 -1009 2 -1008 3 0 375 1 375 27 100 c31 111 59
177 114 269 209 349 618 545 1009 481z m4 -2468 c78 -29 178 -130 210 -212 34
-89 33 -219 -2 -297 -29 -62 -92 -136 -144 -169 l-34 -21 0 -255 c0 -252 0
-257 -24 -297 -46 -79 -152 -109 -234 -67 -94 48 -102 77 -102 374 l0 244 -44
31 c-101 73 -156 185 -156 319 0 78 3 93 35 158 90 188 294 266 495 192z"/>
</g>
</svg>
