<?xml version="1.0" standalone="no"?>
<!DOCTYPE svg PUBLIC "-//W3C//DTD SVG 20010904//EN"
 "http://www.w3.org/TR/2001/REC-SVG-20010904/DTD/svg10.dtd">
<svg version="1.0" xmlns="http://www.w3.org/2000/svg"
 width="500.000000pt" height="500.000000pt" viewBox="0 0 500.000000 500.000000"
 preserveAspectRatio="xMidYMid meet">

<g transform="translate(0.000000,500.000000) scale(0.100000,-0.100000)"
fill="#000000" stroke="none">
<path d="M1594 4250 c-23 -10 -52 -33 -65 -51 -21 -30 -24 -47 -28 -149 l-3
-114 -181 -176 c-100 -96 -242 -234 -316 -307 l-136 -131 -3 -131 c-4 -149 10
-216 59 -288 27 -39 92 -92 130 -106 15 -5 16 -63 12 -694 -2 -378 -6 -693 -8
-699 -2 -6 -31 -14 -65 -17 -160 -17 -295 -154 -308 -313 -4 -57 -2 -65 21
-88 l26 -26 1940 0 1940 0 21 28 c48 61 1 216 -92 306 -66 63 -113 83 -231 97
l-97 12 0 681 1 681 37 17 c58 27 105 71 137 129 29 53 30 57 33 219 l3 165
-345 330 -344 330 -1 70 c-2 133 -26 184 -101 223 l-44 22 -976 -1 c-922 0
-977 -1 -1016 -19z m1967 -154 c2 -2 2 -29 1 -60 l-4 -56 -946 2 -947 3 -3 58
-3 57 949 0 c522 0 951 -2 953 -4z m-1871 -282 c0 -5 -125 -167 -155 -200 -5
-7 -53 -66 -105 -132 l-95 -121 -92 -1 c-51 0 -93 4 -93 9 0 5 30 37 68 71 37
34 140 134 229 221 155 152 164 159 203 159 22 0 40 -3 40 -6z m308 -7 c-2 -8
-59 -111 -128 -230 l-124 -217 -98 0 c-54 0 -98 3 -98 8 0 4 44 62 98 129 53
67 133 167 177 222 l80 101 48 0 c36 0 48 -4 45 -13z m242 -219 l-78 -233
-111 -3 c-81 -2 -111 1 -111 9 0 10 69 138 140 260 8 14 37 65 63 112 l49 87
63 0 63 0 -78 -232z m320 -3 l0 -235 -110 0 c-85 0 -110 3 -110 13 0 11 114
364 141 435 7 17 16 22 44 22 l35 0 0 -235z m304 22 c39 -116 73 -222 78 -234
7 -23 7 -23 -107 -23 l-115 0 0 235 0 235 38 0 37 0 69 -213z m276 121 c88
-154 92 -161 118 -208 13 -25 40 -70 58 -101 19 -31 34 -62 34 -68 0 -12 -182
-15 -214 -2 -13 5 -38 66 -92 230 -41 122 -74 226 -74 232 0 5 26 9 59 9 l59
0 52 -92z m272 50 c18 -24 101 -129 185 -235 84 -106 153 -194 153 -197 0 -4
-45 -6 -100 -6 l-100 0 -23 38 c-36 58 -237 409 -243 427 -5 12 3 15 44 15 47
0 52 -3 84 -42z m478 -198 l245 -239 -86 -1 -86 0 -184 232 c-101 127 -185
235 -187 240 -2 4 9 8 25 8 23 0 70 -42 273 -240z m-2602 -465 c-5 -96 -20
-127 -79 -159 -48 -26 -102 -15 -146 29 -33 33 -33 34 -33 124 l0 91 131 0
132 0 -5 -85z m422 1 c0 -70 -4 -88 -23 -117 -39 -58 -106 -76 -168 -44 -50
26 -69 69 -69 156 0 42 3 79 7 82 3 4 62 7 130 7 l123 0 0 -84z m421 70 c2 -2
3 -43 1 -91 -3 -82 -5 -87 -37 -119 -56 -56 -124 -56 -181 1 -34 33 -34 35
-34 123 l0 90 123 0 c68 0 126 -2 128 -4z m429 -78 c0 -97 -17 -135 -73 -161
-46 -22 -85 -21 -123 2 -45 28 -64 76 -64 165 l0 76 130 0 130 0 0 -82z m422
-3 c-2 -44 -8 -92 -14 -107 -23 -61 -123 -88 -182 -49 -46 30 -55 57 -56 154
l0 88 128 -3 127 -3 -3 -80z m428 0 c0 -122 -43 -178 -138 -178 -37 0 -49 5
-80 36 -36 37 -37 39 -40 127 l-4 90 131 0 131 0 0 -75z m420 -15 c0 -89 -1
-91 -34 -128 -32 -34 -38 -37 -91 -37 -53 0 -59 3 -91 37 -33 37 -34 39 -34
128 l0 90 125 0 125 0 0 -90z m430 1 c0 -65 -4 -84 -23 -112 -28 -42 -60 -59
-115 -59 -34 0 -49 6 -80 34 -37 34 -37 35 -40 125 l-4 91 131 0 131 0 0 -79z
m-2847 -259 c56 -38 99 -52 161 -52 68 0 122 16 173 52 l43 29 43 -29 c65 -44
106 -57 177 -56 68 1 111 16 170 57 l35 25 42 -30 c112 -76 229 -77 341 -3
l41 27 62 -39 c60 -37 65 -38 153 -38 93 0 112 6 197 67 13 9 23 6 50 -14 68
-51 100 -62 179 -62 78 1 113 12 178 61 l33 25 33 -30 c50 -43 125 -66 202
-59 58 4 94 18 171 67 20 13 25 12 45 -7 13 -11 42 -30 66 -42 l42 -21 -2
-683 -3 -682 -785 0 -785 0 -5 605 c-3 333 -6 606 -8 607 -1 1 -12 11 -24 23
-21 20 -32 20 -522 20 -479 0 -502 -1 -526 -20 l-25 -19 -5 -608 -5 -608 -50
0 c-92 1 -85 -25 -85 313 0 164 3 474 7 689 l6 390 48 23 c27 12 54 29 60 36
16 20 25 18 72 -14z m892 -892 l0 -545 -305 0 c-168 -1 -344 1 -392 3 l-88 3
0 545 0 544 393 -2 392 -3 0 -545z m2068 -726 c40 -21 87 -64 87 -81 0 -11
-320 -13 -1795 -13 -1475 0 -1795 2 -1795 13 0 17 53 68 88 83 21 10 416 13
1705 13 1525 1 1681 0 1710 -15z"/>
<path d="M2785 2558 c-46 -24 -45 -18 -45 -500 l0 -459 26 -24 27 -25 469 0
c459 0 471 0 499 21 l29 20 0 459 c0 252 -3 466 -6 475 -17 43 -39 45 -521 45
-312 -1 -464 -4 -478 -12z m859 -146 c17 -29 -56 -118 -382 -462 -73 -77 -85
-116 -46 -155 21 -20 77 -19 100 3 10 9 75 78 144 152 69 74 137 148 153 164
15 16 27 25 27 20 1 -5 1 -103 1 -219 l-1 -210 -355 -3 c-195 -1 -355 1 -355
6 0 4 30 37 66 72 171 168 344 360 344 381 0 34 -38 69 -74 69 -26 0 -55 -24
-203 -172 l-173 -173 0 268 0 267 374 0 c206 0 377 -4 380 -8z"/>
<path d="M2084 2091 c-31 -13 -54 -50 -54 -87 0 -96 135 -127 176 -40 19 38
14 71 -15 105 -21 25 -75 35 -107 22z"/>
</g>
</svg>
