<?xml version="1.0" standalone="no"?>
<!DOCTYPE svg PUBLIC "-//W3C//DTD SVG 20010904//EN"
 "http://www.w3.org/TR/2001/REC-SVG-20010904/DTD/svg10.dtd">
<svg version="1.0" xmlns="http://www.w3.org/2000/svg"
 width="500.000000pt" height="500.000000pt" viewBox="0 0 500.000000 500.000000"
 preserveAspectRatio="xMidYMid meet">

<g transform="translate(0.000000,500.000000) scale(0.100000,-0.100000)"
fill="#000000" stroke="none">
<path d="M2375 4484 c-22 -3 -96 -16 -164 -30 -782 -162 -1381 -746 -1541
-1502 -68 -325 -33 -746 88 -1047 122 -305 327 -585 571 -782 143 -114 222
-165 376 -243 206 -105 377 -158 645 -201 128 -20 455 -15 595 10 449 80 795
258 1100 565 255 255 414 532 500 866 46 179 49 210 49 460 0 282 -10 350 -91
590 -218 653 -773 1134 -1480 1286 -105 23 -145 26 -363 29 -135 1 -263 1
-285 -1z m500 -299 c364 -63 640 -206 896 -465 139 -140 224 -259 307 -425
223 -452 224 -972 2 -1430 -325 -668 -1066 -1030 -1799 -879 -441 91 -834 375
-1067 770 -277 471 -297 1056 -53 1547 177 357 497 649 868 792 149 58 302 92
486 109 69 7 276 -5 360 -19z"/>
<path d="M2530 3964 c-299 -25 -550 -123 -780 -305 -138 -109 -224 -207 -320
-364 -217 -357 -259 -792 -116 -1189 216 -595 803 -966 1436 -906 545 51 1007
419 1184 942 96 285 96 572 0 873 -67 210 -210 432 -376 584 -184 169 -448
300 -693 345 -86 16 -261 26 -335 20z m178 -554 c3 -78 10 -90 51 -90 13 0 57
-16 96 -35 85 -40 148 -105 189 -190 45 -95 47 -92 -84 -147 -63 -26 -116 -48
-117 -48 -2 0 -14 22 -27 49 -68 133 -174 184 -270 128 -54 -31 -79 -79 -72
-141 9 -78 26 -90 238 -175 183 -72 236 -100 293 -156 28 -27 64 -77 80 -110
25 -50 30 -74 33 -156 9 -221 -90 -369 -293 -439 -32 -11 -71 -20 -86 -20
l-28 0 -3 -102 -3 -103 -87 -3 -87 -3 -3 102 -3 102 -61 13 c-135 27 -242 111
-303 239 -34 72 -53 145 -38 150 30 10 243 65 253 65 6 0 14 -17 18 -38 7 -44
48 -110 88 -142 35 -27 130 -45 192 -36 94 14 151 104 126 196 -13 48 -50 78
-142 114 -38 14 -98 38 -135 52 -178 68 -270 136 -321 233 -56 109 -53 271 8
394 56 115 145 179 293 211 27 6 27 7 27 87 l0 80 88 -3 87 -3 3 -75z"/>
</g>
</svg>
